<?xml version="1.0" standalone="no"?>
<!DOCTYPE svg PUBLIC "-//W3C//DTD SVG 20010904//EN"
 "http://www.w3.org/TR/2001/REC-SVG-20010904/DTD/svg10.dtd">
<svg version="1.0" xmlns="http://www.w3.org/2000/svg"
 width="577.000000pt" height="577.000000pt" viewBox="0 0 577.000000 577.000000"
 preserveAspectRatio="xMidYMid meet">
<metadata>
Created by potrace 1.14, written by Peter Selinger 2001-2017
</metadata>
<g transform="translate(0.000000,577.000000) scale(0.100000,-0.100000)"
fill="#000000" stroke="none">
<path d="M2699 5766 c-2 -2 -41 -7 -85 -10 -45 -4 -93 -9 -105 -11 -39 -6
-142 -25 -169 -30 -45 -9 -154 -36 -180 -45 -14 -4 -52 -16 -85 -26 -144 -42
-379 -146 -533 -236 -207 -121 -364 -241 -547 -420 -203 -197 -347 -385 -507
-663 -68 -118 -174 -365 -222 -515 -15 -47 -31 -99 -37 -117 -5 -18 -12 -40
-14 -50 -2 -10 -10 -47 -19 -83 -26 -114 -47 -247 -66 -420 -8 -76 -6 -518 3
-555 3 -11 8 -47 11 -80 25 -218 104 -523 192 -740 144 -352 343 -658 606
-931 73 -75 132 -141 131 -145 -3 -8 113 -104 213 -176 242 -174 518 -310 811
-398 118 -36 319 -80 408 -89 28 -3 79 -9 115 -13 80 -10 453 -9 535 0 92 12
246 37 285 47 19 5 46 11 60 14 173 34 485 156 685 268 54 31 199 120 205 127
3 3 28 22 55 41 28 19 55 39 62 45 6 5 43 35 81 65 65 51 269 250 354 346 166
187 364 514 473 777 91 221 173 527 199 745 28 230 29 614 2 782 -3 14 -10 59
-16 100 -33 213 -126 538 -185 653 -8 16 -15 33 -15 38 0 18 -127 265 -186
361 -175 288 -396 543 -633 734 -13 10 -32 27 -42 36 -33 32 -263 184 -354
235 -216 122 -529 243 -715 277 -14 2 -45 9 -70 14 -25 6 -61 13 -80 16 -19 2
-55 7 -80 11 -25 3 -58 8 -75 11 -35 5 -461 14 -466 10z"/>
</g>
</svg>
